# xmcd
#
# Track frame offsets:
#	150
#	12057
#	29387
#	43213
#	57949
#	75013
#	94502
#	110116
#	123266
#	136098
#	147930
#	160846
#	176318
#	190538
#	204735
#	216263
#	228874
#	241278
#	251955
#	268532
#	280559
#	292430
#	307289
#	320817
#	338444
#
# Disc length: 4716 seconds
#
# Revision: 0
# Processed by: cddbd v1.5.2PL0 Copyright (c) Steve Scherf et al.
# Submitted via: audiograbber 1.83.01
#
DISCID=67126a19
DTITLE=Various Artist - 25 Soul Classics Vol 4
DYEAR=1900
DGENRE=Soul
TTITLE0=Sam and Dave - Soul Sister Brown Sugar
TTITLE1=Marvin Gaye - I Heard it Through The Grapevine
TTITLE2=Edwin Starr - Stop Her on Sight (SOS)
TTITLE3=Barbara Pennington - Fan the Flame
TTITLE4=David Ruffin - Hurt the One You Love
TTITLE5=The Three Degrees - My Simple Heart
TTITLE6=Bobby Taylor and the Vancouvers - Does Your Mama Know About Me
TTITLE7=Barry White and Love Unlimited - Out of the Shadows of Love
TTITLE8=Tymes - Wonderful Wonderful
TTITLE9=The Fantastics - Something Old, Something New
TTITLE10=Kool and the Gang - Ladies Night
TTITLE11=The Trammps - Feet Don't Fail Me
TTITLE12=Rose Battiste - Hit and Run
TTITLE13=Marv Johnson - I'll Pick A Rose For My Rose
TTITLE14=Leon Haywood - Baby Reconsider
TTITLE15=Brook Benton - The Boll Weevil Song
TTITLE16=The Marvelettes - When You're Young and In Love
TTITLE17=Eddie Floyd - Things Get Better
TTITLE18=Johnny Bristol - Keep This Thought In Mind
TTITLE19=Detroit Emeralds - You Want it You Got it
TTITLE20=The Artistics - I'm Gonna Miss You
TTITLE21=Louise Thomas - You Are the Joy
TTITLE22=Rare Earth - Love is Here and Now You're Gone
TTITLE23=Gloria Gaynor - Never Can Say Goodbye
TTITLE24=The Supremes - Someday We'll Be Together
EXTD=
EXTT0=
EXTT1=
EXTT2=
EXTT3=
EXTT4=
EXTT5=
EXTT6=
EXTT7=
EXTT8=
EXTT9=
EXTT10=
EXTT11=
EXTT12=
EXTT13=
EXTT14=
EXTT15=
EXTT16=
EXTT17=
EXTT18=
EXTT19=
EXTT20=
EXTT21=
EXTT22=
EXTT23=
EXTT24=
PLAYORDER=
